# xmcd
#
# Track frame offsets: 
#        150
#        18031
#        30854
#        47183
#        58551
#        69393
#        79771
#        92715
#        105586
#        116292
#        127928
#        146060
#
# Disc length: 2058 seconds
#
# Revision: 0
# Processed by: cddbd v1.5.2PL0 Copyright (c) Steve Scherf et al.
# Submitted via: ExactAudioCopy v1.0b3
#
DISCID=8d08080c
DTITLE=Highwaymen - Highwaymen {5-CD Box} [CD 2: Just The Other Side O
DTITLE=f Nowhere)
DYEAR=2008
DGENRE=Country
TTITLE0=Kris Kristofferson - Just The Other Side Of Nowhere
TTITLE1=Willie Nelson - The Shelter Of Your Arms
TTITLE2=Johnny Cash - A Boy Named Sue
TTITLE3=Waylon Jennings - Mig Mamou
TTITLE4=Johnny Cash - If I Were A Carpenter
TTITLE5=Willie Nelson - Healing Hands Of Time
TTITLE6=Johnny Cash - Jackson
TTITLE7=Willie Nelson - To All The Girls I Loved Before
TTITLE8=Waylon Jennings - White Lightning
TTITLE9=Johnny Cash - Big River
TTITLE10=Willie Nelson - Red Headed Stranger
TTITLE11=Johnny Cash - Get Rhythm
EXTD=
EXTT0=
EXTT1=
EXTT2=
EXTT3=
EXTT4=
EXTT5=
EXTT6=
EXTT7=
EXTT8=
EXTT9=
EXTT10=
EXTT11=
PLAYORDER=
